<svg viewBox="0 0 638.576416015625 400.0000305175781" xmlns="http://www.w3.org/2000/svg"><g><g><g><g><g><line x1="60" y1="378" x2="55" y2="378" style="visibility: inherit;" fill="rgb(0, 0, 0)" stroke="rgb(204, 204, 204)" stroke-width="1px"></line><line x1="60" y1="323.99999999999994" x2="55" y2="323.99999999999994" style="visibility: inherit;" fill="rgb(0, 0, 0)" stroke="rgb(204, 204, 204)" stroke-width="1px"></line><line x1="60" y1="270.00000000000006" x2="55" y2="270.00000000000006" style="visibility: inherit;" fill="rgb(0, 0, 0)" stroke="rgb(204, 204, 204)" stroke-width="1px"></line><line x1="60" y1="216.00000000000003" x2="55" y2="216.00000000000003" style="visibility: inherit;" fill="rgb(0, 0, 0)" stroke="rgb(204, 204, 204)" stroke-width="1px"></line><line x1="60" y1="161.99999999999997" x2="55" y2="161.99999999999997" style="visibility: inherit;" fill="rgb(0, 0, 0)" stroke="rgb(204, 204, 204)" stroke-width="1px"></line><line x1="60" y1="108.00000000000006" x2="55" y2="108.00000000000006" style="visibility: inherit;" fill="rgb(0, 0, 0)" stroke="rgb(204, 204, 204)" stroke-width="1px"></line><line x1="60" y1="54.00000000000006" x2="55" y2="54.00000000000006" style="visibility: inherit;" fill="rgb(0, 0, 0)" stroke="rgb(204, 204, 204)" stroke-width="1px"></line><line x1="60" y1="0" x2="55" y2="0" style="visibility: inherit;" fill="rgb(0, 0, 0)" stroke="rgb(204, 204, 204)" stroke-width="1px"></line></g><g transform="translate(50, 0)"><text x="0" y="378" dx="0em" dy="0.3em" style="text-anchor: end; visibility: hidden; font-family: &quot;Helvetica Neue&quot;, sans-serif; font-size: 12px; font-weight: 200;" fill="rgb(50, 49, 63)" stroke="none" stroke-width="1px">0.095</text><text x="0" y="323.99999999999994" dx="0em" dy="0.3em" style="text-anchor: end; visibility: inherit; font-family: &quot;Helvetica Neue&quot;, sans-serif; font-size: 12px; font-weight: 200;" fill="rgb(50, 49, 63)" stroke="none" stroke-width="1px">0.1</text><text x="0" y="270.00000000000006" dx="0em" dy="0.3em" style="text-anchor: end; visibility: inherit; font-family: &quot;Helvetica Neue&quot;, sans-serif; font-size: 12px; font-weight: 200;" fill="rgb(50, 49, 63)" stroke="none" stroke-width="1px">0.105</text><text x="0" y="216.00000000000003" dx="0em" dy="0.3em" style="text-anchor: end; visibility: inherit; font-family: &quot;Helvetica Neue&quot;, sans-serif; font-size: 12px; font-weight: 200;" fill="rgb(50, 49, 63)" stroke="none" stroke-width="1px">0.11</text><text x="0" y="161.99999999999997" dx="0em" dy="0.3em" style="text-anchor: end; visibility: inherit; font-family: &quot;Helvetica Neue&quot;, sans-serif; font-size: 12px; font-weight: 200;" fill="rgb(50, 49, 63)" stroke="none" stroke-width="1px">0.115</text><text x="0" y="108.00000000000006" dx="0em" dy="0.3em" style="text-anchor: end; visibility: inherit; font-family: &quot;Helvetica Neue&quot;, sans-serif; font-size: 12px; font-weight: 200;" fill="rgb(50, 49, 63)" stroke="none" stroke-width="1px">0.12</text><text x="0" y="54.00000000000006" dx="0em" dy="0.3em" style="text-anchor: end; visibility: inherit; font-family: &quot;Helvetica Neue&quot;, sans-serif; font-size: 12px; font-weight: 200;" fill="rgb(50, 49, 63)" stroke="none" stroke-width="1px">0.125</text><text x="0" y="0" dx="0em" dy="0.3em" style="text-anchor: end; visibility: hidden; font-family: &quot;Helvetica Neue&quot;, sans-serif; font-size: 12px; font-weight: 200;" fill="rgb(50, 49, 63)" stroke="none" stroke-width="1px">0.13</text></g><line x1="60" y1="0" x2="60" y2="378" fill="rgb(0, 0, 0)" stroke="rgb(204, 204, 204)" stroke-width="1px"></line></g></g><g transform="translate(60, 0)" clip-path="url(#clip_0)"><clipPath id="clip_0"><rect width="578" height="377"></rect></clipPath><g><g><g><line x1="0" y1="0" x2="0" y2="378" fill="rgb(0, 0, 0)" stroke="rgb(60, 60, 60)" stroke-width="1px" opacity="0.25"></line><line x1="48.214666666666666" y1="0" x2="48.214666666666666" y2="378" fill="rgb(0, 0, 0)" stroke="rgb(60, 60, 60)" stroke-width="1px" opacity="0.25"></line><line x1="96.42933333333333" y1="0" x2="96.42933333333333" y2="378" fill="rgb(0, 0, 0)" stroke="rgb(60, 60, 60)" stroke-width="1px" opacity="0.25"></line><line x1="144.644" y1="0" x2="144.644" y2="378" fill="rgb(0, 0, 0)" stroke="rgb(60, 60, 60)" stroke-width="1px" opacity="0.25"></line><line x1="192.85866666666666" y1="0" x2="192.85866666666666" y2="378" fill="rgb(0, 0, 0)" stroke="rgb(60, 60, 60)" stroke-width="1px" opacity="0.25"></line><line x1="241.07333333333335" y1="0" x2="241.07333333333335" y2="378" fill="rgb(0, 0, 0)" stroke="rgb(60, 60, 60)" stroke-width="1px" opacity="0.25"></line><line x1="289.288" y1="0" x2="289.288" y2="378" fill="rgb(0, 0, 0)" stroke="rgb(60, 60, 60)" stroke-width="1px" opacity="0.25"></line><line x1="337.5026666666667" y1="0" x2="337.5026666666667" y2="378" fill="rgb(0, 0, 0)" stroke="rgb(60, 60, 60)" stroke-width="1px" opacity="0.25"></line><line x1="385.71733333333333" y1="0" x2="385.71733333333333" y2="378" fill="rgb(0, 0, 0)" stroke="rgb(60, 60, 60)" stroke-width="1px" opacity="0.25"></line><line x1="433.932" y1="0" x2="433.932" y2="378" fill="rgb(0, 0, 0)" stroke="rgb(60, 60, 60)" stroke-width="1px" opacity="0.25"></line><line x1="482.1466666666667" y1="0" x2="482.1466666666667" y2="378" fill="rgb(0, 0, 0)" stroke="rgb(60, 60, 60)" stroke-width="1px" opacity="0.25"></line><line x1="530.3613333333333" y1="0" x2="530.3613333333333" y2="378" fill="rgb(0, 0, 0)" stroke="rgb(60, 60, 60)" stroke-width="1px" opacity="0.25"></line><line x1="578.576" y1="0" x2="578.576" y2="378" fill="rgb(0, 0, 0)" stroke="rgb(60, 60, 60)" stroke-width="1px" opacity="0.25"></line></g><g><line x1="0" y1="378" x2="578.576" y2="378" fill="rgb(0, 0, 0)" stroke="rgb(60, 60, 60)" stroke-width="1px" opacity="0.25"></line><line x1="0" y1="323.99999999999994" x2="578.576" y2="323.99999999999994" fill="rgb(0, 0, 0)" stroke="rgb(60, 60, 60)" stroke-width="1px" opacity="0.25"></line><line x1="0" y1="270.00000000000006" x2="578.576" y2="270.00000000000006" fill="rgb(0, 0, 0)" stroke="rgb(60, 60, 60)" stroke-width="1px" opacity="0.25"></line><line x1="0" y1="216.00000000000003" x2="578.576" y2="216.00000000000003" fill="rgb(0, 0, 0)" stroke="rgb(60, 60, 60)" stroke-width="1px" opacity="0.25"></line><line x1="0" y1="161.99999999999997" x2="578.576" y2="161.99999999999997" fill="rgb(0, 0, 0)" stroke="rgb(60, 60, 60)" stroke-width="1px" opacity="0.25"></line><line x1="0" y1="108.00000000000006" x2="578.576" y2="108.00000000000006" fill="rgb(0, 0, 0)" stroke="rgb(60, 60, 60)" stroke-width="1px" opacity="0.25"></line><line x1="0" y1="54.00000000000006" x2="578.576" y2="54.00000000000006" fill="rgb(0, 0, 0)" stroke="rgb(60, 60, 60)" stroke-width="1px" opacity="0.25"></line><line x1="0" y1="0" x2="578.576" y2="0" fill="rgb(0, 0, 0)" stroke="rgb(60, 60, 60)" stroke-width="1px" opacity="0.25"></line></g></g></g><g><g><line x1="0" y1="1403.9999999999998" x2="578.576" y2="1403.9999999999998" fill="rgb(0, 0, 0)" stroke="rgb(153, 153, 153)" stroke-width="1.5px"></line></g></g><g><g><line x1="48.214666666666666" y1="0" x2="48.214666666666666" y2="378" fill="rgb(0, 0, 0)" stroke="rgb(153, 153, 153)" stroke-width="1.5px"></line></g></g><g><g><g><g><g><path stroke="rgb(255, 112, 67)" stroke-width="2px" d="M62.67906666666667,-4.528494307831693L65.08980000000001,28.768822768929795L67.50053333333334,52.96438208235611L69.91126666666668,70.46783792662L72.322,83.20579724721688L74.73273333333334,92.85916983139276L77.14346666666667,100.42979864489575L79.55420000000001,106.57459426204349L81.96493333333333,111.80033213572227L84.37566666666667,116.39459389917226L86.7864,120.61225467049934L89.19713333333334,124.67810408390065L91.60786666666667,128.75294214876223L94.0186,132.9383316972143L96.42933333333333,137.2963054687462L98.84006666666667,142.00945556700532L101.2508,147.0768608485821L103.66153333333334,152.4639756497029L106.07226666666666,157.9262767528124L108.483,163.36005064267331L110.89373333333334,168.59752826549052L113.30446666666667,173.58703531453565L115.71520000000001,178.28456320771858L118.12593333333334,182.63280734828632L120.53666666666668,186.63913065533856L122.9474,190.36482429556875L125.35813333333334,193.77536975965631L127.76886666666667,197.00158998449902L130.17960000000002,200.12790101824368L132.59033333333332,203.07887792089448L135.00106666666667,205.7850936550419L137.4118,208.43402774712692L139.82253333333335,210.9927170785525L142.23326666666665,213.3232914784267L144.644,215.67699605288425L147.05473333333333,217.92336434271138L149.46546666666669,220.05380026250722L151.8762,222.10888318901885L154.28693333333334,223.98080294560373L156.69766666666666,225.7713420465574L159.10840000000002,227.6258020923227L161.51913333333334,229.31052892961046L163.92986666666667,230.96293869949406L166.3406,232.4903864821141L168.75133333333335,233.96773724320332L171.16206666666668,235.3195646081177L173.5728,236.70296932899026L175.98353333333333,238.07934595133875L178.39426666666668,239.3081791936524L180.805,240.5460115277276L183.21573333333333,241.77884707471785L185.6264666666667,242.97247472775632L188.0372,244.0343022309104L190.44793333333334,245.07508191838028L192.85866666666666,246.02434378489363L195.26940000000002,247.0049226142438L197.68013333333334,247.97722276791768L200.09086666666667,249.01131053414844L202.5016,250.02807566909146L204.91233333333335,250.86582210891336L207.32306666666668,251.8082342340524L209.7338,252.70893617832516L212.14453333333333,253.62696945884156L214.55526666666668,254.4314191115994L216.966,255.09774511892198L219.37673333333333,255.9845225920594L221.7874666666667,256.839902550597L224.1982,257.66939515508375L226.60893333333334,258.5265496411155L229.01966666666667,259.2841079615491L231.43040000000002,259.9882171382272L233.84113333333335,260.7663113731004L236.25186666666667,261.55883100377656L238.6626,262.3812167808244L241.07333333333335,263.08907476453953L243.48406666666668,263.9229444467364L245.8948,264.66379603167394L248.30553333333333,265.3335803533795L250.71626666666668,266.11074563176635L253.127,266.73269875235076L255.53773333333334,267.4687091314002L257.9484666666667,268.2416432740214L260.35920000000004,268.86166925680175L262.7699333333333,269.48123128087235L265.18066666666664,270.19955281538313L267.5914,270.8164550073299L270.00213333333335,271.4846755747409L272.4128666666667,272.22025104072156L274.8236,272.86836244884995L277.2343333333334,273.47365137472076L279.6450666666667,274.15994508584936L282.0558,274.8620758028066L284.4665333333333,275.3954276544593L286.8772666666667,275.947085064813L289.288,276.58649063239363L291.69873333333334,277.1247579582325L294.10946666666666,277.67411825226503L296.5202,278.2384062598153L298.93093333333337,278.7703234189752L301.3416666666667,279.45961855852613L303.7524,279.9567840039969L306.16313333333335,280.43474835993294L308.5738666666667,280.9696205785362L310.9846,281.5210314947657L313.3953333333333,281.9208215450222L315.80606666666665,282.43016102164836L318.21680000000003,282.95395704656744L320.62753333333336,283.41815941661537L323.0382666666667,283.86240916925635L325.449,284.3003521768925L327.85973333333334,284.82312059454193L330.27046666666666,285.2851936343436L332.6812,285.69253532428297L335.0919333333334,286.1378807088062L337.5026666666667,286.3907649433807L339.9134,286.87836169697016L342.32413333333335,287.3377424210141L344.7348666666667,287.8587286072869L347.1456,288.24808514105666L349.5563333333333,288.68933422557956L351.96706666666665,289.12280535216604L354.37780000000004,289.6456908673971L356.78853333333336,289.94377953356076L359.1992666666667,290.35147880640966L361.61,290.7476002641163L364.02073333333334,291.0511589209819L366.43146666666667,291.4513898945203L368.8422,291.98056332208813L371.2529333333334,292.3209841724521L373.6636666666667,292.6918662355116L376.0744,293.0074788550002L378.48513333333335,293.36083668586394L380.8958666666667,293.72844096491804L383.3066,294.07987387460514L385.71733333333333,294.43264393497736L388.12806666666665,294.83813312345285L390.53880000000004,295.29292418178045L392.94953333333336,295.59106522569726L395.3602666666667,295.84806650739716L397.771,296.1284705749858L400.18173333333334,296.46646465967336L402.59246666666667,296.8461259729281L405.0032,297.2242659405837L407.4139333333334,297.4773175523264L409.8246666666667,297.70465806755914L412.2354,298.10682637473053L414.64613333333335,298.4950587688692L417.0568666666667,298.8282913648371L419.4676,299.0501499344877L421.87833333333333,299.36093460142456L424.28906666666666,299.67975632321736L426.69980000000004,300.0100628851169L429.11053333333336,300.32547008504355L431.5212666666667,300.6387290210122L433.932,300.8519186050054L436.34273333333334,301.16706127347686L438.75346666666667,301.5790384436974L441.1642,301.83562320621775L443.5749333333334,301.96202241272914L445.9856666666667,302.29387342268933L448.3964,302.6396257599277L450.80713333333335,302.77713587999835L453.2178666666667,302.94001166296306L455.6286,303.34135246439166L458.03933333333333,303.75503068067655L460.45006666666666,303.99586690007465L462.86080000000004,304.32376735531585L465.27153333333337,304.5303566999631L467.6822666666667,304.89838059827065L470.093,305.17896528294307L472.50373333333334,305.3444514945187L474.91446666666667,305.4964003488444L477.3252,305.73379296809577L479.7359333333334,306.0149202033887L482.1466666666667,306.3093814185268L484.55740000000003,306.57453885859286L486.96813333333336,306.70183305255193L489.3788666666667,306.9204417485691L491.7896,307.3596318494498L494.20033333333333,307.4501434285176L496.61106666666666,307.7777782034119L499.02180000000004,307.9913857311749L501.43253333333337,308.21105649058484L503.8432666666667,308.34617415657306L506.254,308.5799697374741L508.66473333333334,308.8401096424722L511.07546666666667,309.12104505069635L513.4861999999999,309.3361479864572L515.8969333333334,309.5932798639569L518.3076666666667,309.68820706937504L520.7184000000001,309.94600720366117L523.1291333333334,310.1675386617201L525.5398666666666,310.4196441763411L527.9506,310.59807289801654" style="fill: none;" fill="none"></path></g></g></g></g><g opacity="0.2"><g><g><g><path stroke="rgb(255, 112, 67)" stroke-width="2px" d="M55.44686666666667,-13.659741640090886L57.857600000000005,28.036431312561092L60.26833333333334,48.20562386512762L62.67906666666667,63.029039740562496L65.08980000000001,77.31663072109228L67.50053333333334,88.6481323242188L69.91126666666668,96.45842993259436L72.322,102.19720387458807L74.73273333333334,107.28669548034668L77.14346666666667,111.76102244853973L79.55420000000001,115.77974939346319L81.96493333333333,119.63279628753668L84.37566666666667,123.28274631500247L86.7864,126.93696105480197L89.19713333333334,130.77584588527682L91.60786666666667,134.86457848548892L94.0186,139.21603345870975L96.42933333333333,143.83302712440496L98.84006666666667,149.0790256261826L101.2508,154.67786872386938L103.66153333333334,160.54458403587344L106.07226666666666,166.11968958377838L108.483,171.51068830490112L110.89373333333334,176.45373129844668L113.30446666666667,181.07128822803503L115.71520000000001,185.3308507204056L118.12593333333334,189.1551711559296L120.53666666666668,192.64861428737643L122.9474,195.95336401462558L125.35813333333334,198.89118754863742L127.76886666666667,201.84092009067538L130.17960000000002,204.81736743450168L132.59033333333332,207.50534319877627L135.00106666666667,209.84441721439364L137.4118,212.4074288606644L139.82253333333335,214.83075106143954L142.23326666666665,216.81915307044986L144.644,219.2075529098511L147.05473333333333,221.29291677474978L149.46546666666669,223.24945414066318L151.8762,225.19150757789615L154.28693333333334,226.78868257999423L156.69766666666666,228.45715069770816L159.10840000000002,230.40749216079715L161.51913333333334,231.83761918544772L163.92986666666667,233.44155335426333L166.3406,234.78155815601352L168.75133333333335,236.18376338481906L171.16206666666668,237.34730565547946L173.5728,238.7780764102936L175.98353333333333,240.1439108848572L178.39426666666668,241.1514290571213L180.805,242.40276002883914L183.21573333333333,243.62810039520267L185.6264666666667,244.76291620731357L188.0372,245.6270434856415L190.44793333333334,246.636251449585L192.85866666666666,247.44823658466342L195.26940000000002,248.47579085826877L197.68013333333334,249.43567299842837L200.09086666666667,250.5624421834946L202.5016,251.55322337150577L204.91233333333335,252.12244176864624L207.32306666666668,253.2218524217606L209.7338,254.05998909473422L212.14453333333333,255.0040193796158L214.55526666666668,255.63809359073642L216.966,256.0972341299057L219.37673333333333,257.31468880176544L221.7874666666667,258.1229724884033L224.1982,258.91363406181335L226.60893333333334,259.81228137016296L229.01966666666667,260.4204454421997L231.43040000000002,261.044380903244L233.84113333333335,261.93345272541046L236.25186666666667,262.74761044979095L238.6626,263.6147954463959L241.07333333333335,264.1508617401123L243.48406666666668,265.17374897003174L245.8948,265.7750734090805L248.30553333333333,266.3382568359375L250.71626666666668,267.2764935493469L253.127,267.66562843322754L255.53773333333334,268.57272469997406L257.9484666666667,269.4010444879532L260.35920000000004,269.7917082309723L262.7699333333333,270.41057431697845L265.18066666666664,271.27703511714935L267.5914,271.74180829524994L270.00213333333335,272.48700642585754L272.4128666666667,273.3236142396927L274.8236,273.8405295610428L277.2343333333334,274.3815847635269L279.6450666666667,275.1893856525421L282.0558,275.9152718782425L284.4665333333333,276.19545543193817L286.8772666666667,276.7745711803436L289.288,277.54559898376465L291.69873333333334,277.93215894699097L294.10946666666666,278.4981586933136L296.5202,279.08483827114105L298.93093333333337,279.56819915771484L301.3416666666667,280.4935612678528L303.7524,280.70253217220306L306.16313333333335,281.151694893837L308.5738666666667,281.77192890644073L310.9846,282.3481478691101L313.3953333333333,282.5205066204071L315.80606666666665,283.1941702365875L318.21680000000003,283.7396510839462L320.62753333333336,284.1144629716873L323.0382666666667,284.5287837982178L325.449,284.95726668834686L327.85973333333334,285.60727322101593L330.27046666666666,285.978303194046L332.6812,286.3035478591919L335.0919333333334,286.8058987855911L337.5026666666667,286.7700912952423L339.9134,287.60975682735443L342.32413333333335,288.0268135070801L344.7348666666667,288.64020788669586L347.1456,288.8321199417114L349.5563333333333,289.3512078523636L351.96706666666665,289.7730120420456L354.37780000000004,290.43001914024353L356.78853333333336,290.3909125328064L359.1992666666667,290.963027715683L361.61,291.34178245067596L364.02073333333334,291.5064969062805L366.43146666666667,292.0517363548279L368.8422,292.77432346343994L371.2529333333334,292.83161544799805L373.6636666666667,293.248189330101L376.0744,293.4808977842331L378.48513333333335,293.8908734321594L380.8958666666667,294.27984738349915L383.3066,294.60702323913574L385.71733333333333,294.9617990255356L388.12806666666665,295.4463669061661L390.53880000000004,295.97511076927185L392.94953333333336,296.03827679157257L395.3602666666667,296.2335684299469L397.771,296.5490766763687L400.18173333333334,296.973455786705L402.59246666666667,297.41561794281006L405.0032,297.79147589206696L407.4139333333334,297.8568949699402L409.8246666666667,298.0456688404083L412.2354,298.71007883548737L414.64613333333335,299.0774073600769L417.0568666666667,299.32814025878906L419.4676,299.3829377889633L421.87833333333333,299.82711160182953L424.28906666666666,300.1579889059067L426.69980000000004,300.5055227279663L429.11053333333336,300.7985808849335L431.5212666666667,301.1086174249649L433.932,301.1717029809952L436.34273333333334,301.6397752761841L438.75346666666667,302.197004199028L441.1642,302.2205003499985L443.5749333333334,302.15162122249603L445.9856666666667,302.7916499376297L448.3964,303.1582542657852L450.80713333333335,302.98340106010437L453.2178666666667,303.18432533741L455.6286,303.9433636665344L458.03933333333333,304.37554800510406L460.45006666666666,304.35712122917175L462.86080000000004,304.8156180381775L465.27153333333337,304.8402407169342L467.6822666666667,305.4504164457321L470.093,305.5998423099518L472.50373333333334,305.592680811882L474.91446666666667,305.72432363033295L477.3252,306.08988189697266L479.7359333333334,306.4366110563278L482.1466666666667,306.7510732412338L484.55740000000003,306.972275018692L486.96813333333336,306.8927743434906L489.3788666666667,307.2483547925949L491.7896,308.01841700077057L494.20033333333333,307.58591079711914L496.61106666666666,308.2692303657532L499.02180000000004,308.3117970228195L501.43253333333337,308.5405626296997L503.8432666666667,308.5488506555557L506.254,308.9306631088257L508.66473333333334,309.2303194999695L511.07546666666667,309.54244816303253L513.4861999999999,309.6588023900986L515.8969333333334,309.9789776802063L518.3076666666667,309.83059787750244L520.7184000000001,310.33270740509033L523.1291333333334,310.4998358488083L525.5398666666666,310.7978024482727L527.9506,310.8657159805298" style="fill: none;" fill="none"></path></g></g></g></g></g></g><g transform="translate(60, 378)" clip-path="url(#clip_1)"><clipPath id="clip_1"><rect width="578" height="21"></rect></clipPath><g><g><line x1="0" y1="0" x2="0" y2="5" style="visibility: inherit;" fill="rgb(0, 0, 0)" stroke="rgb(204, 204, 204)" stroke-width="1px"></line><line x1="48.214666666666666" y1="0" x2="48.214666666666666" y2="5" style="visibility: inherit;" fill="rgb(0, 0, 0)" stroke="rgb(204, 204, 204)" stroke-width="1px"></line><line x1="96.42933333333333" y1="0" x2="96.42933333333333" y2="5" style="visibility: inherit;" fill="rgb(0, 0, 0)" stroke="rgb(204, 204, 204)" stroke-width="1px"></line><line x1="144.644" y1="0" x2="144.644" y2="5" style="visibility: inherit;" fill="rgb(0, 0, 0)" stroke="rgb(204, 204, 204)" stroke-width="1px"></line><line x1="192.85866666666666" y1="0" x2="192.85866666666666" y2="5" style="visibility: inherit;" fill="rgb(0, 0, 0)" stroke="rgb(204, 204, 204)" stroke-width="1px"></line><line x1="241.07333333333335" y1="0" x2="241.07333333333335" y2="5" style="visibility: inherit;" fill="rgb(0, 0, 0)" stroke="rgb(204, 204, 204)" stroke-width="1px"></line><line x1="289.288" y1="0" x2="289.288" y2="5" style="visibility: inherit;" fill="rgb(0, 0, 0)" stroke="rgb(204, 204, 204)" stroke-width="1px"></line><line x1="337.5026666666667" y1="0" x2="337.5026666666667" y2="5" style="visibility: inherit;" fill="rgb(0, 0, 0)" stroke="rgb(204, 204, 204)" stroke-width="1px"></line><line x1="385.71733333333333" y1="0" x2="385.71733333333333" y2="5" style="visibility: inherit;" fill="rgb(0, 0, 0)" stroke="rgb(204, 204, 204)" stroke-width="1px"></line><line x1="433.932" y1="0" x2="433.932" y2="5" style="visibility: inherit;" fill="rgb(0, 0, 0)" stroke="rgb(204, 204, 204)" stroke-width="1px"></line><line x1="482.1466666666667" y1="0" x2="482.1466666666667" y2="5" style="visibility: inherit;" fill="rgb(0, 0, 0)" stroke="rgb(204, 204, 204)" stroke-width="1px"></line><line x1="530.3613333333333" y1="0" x2="530.3613333333333" y2="5" style="visibility: inherit;" fill="rgb(0, 0, 0)" stroke="rgb(204, 204, 204)" stroke-width="1px"></line><line x1="578.576" y1="0" x2="578.576" y2="5" style="visibility: inherit;" fill="rgb(0, 0, 0)" stroke="rgb(204, 204, 204)" stroke-width="1px"></line></g><g transform="translate(0, 8)"><text x="0" y="0" dx="0em" dy="0.95em" style="text-anchor: middle; visibility: hidden; font-family: &quot;Helvetica Neue&quot;, sans-serif; font-size: 12px; font-weight: 200;" fill="rgb(50, 49, 63)" stroke="none" stroke-width="1px">-20</text><text x="48.214666666666666" y="0" dx="0em" dy="0.95em" style="text-anchor: middle; visibility: inherit; font-family: &quot;Helvetica Neue&quot;, sans-serif; font-size: 12px; font-weight: 200;" fill="rgb(50, 49, 63)" stroke="none" stroke-width="1px">0</text><text x="96.42933333333333" y="0" dx="0em" dy="0.95em" style="text-anchor: middle; visibility: inherit; font-family: &quot;Helvetica Neue&quot;, sans-serif; font-size: 12px; font-weight: 200;" fill="rgb(50, 49, 63)" stroke="none" stroke-width="1px">20</text><text x="144.644" y="0" dx="0em" dy="0.95em" style="text-anchor: middle; visibility: inherit; font-family: &quot;Helvetica Neue&quot;, sans-serif; font-size: 12px; font-weight: 200;" fill="rgb(50, 49, 63)" stroke="none" stroke-width="1px">40</text><text x="192.85866666666666" y="0" dx="0em" dy="0.95em" style="text-anchor: middle; visibility: inherit; font-family: &quot;Helvetica Neue&quot;, sans-serif; font-size: 12px; font-weight: 200;" fill="rgb(50, 49, 63)" stroke="none" stroke-width="1px">60</text><text x="241.07333333333335" y="0" dx="0em" dy="0.95em" style="text-anchor: middle; visibility: inherit; font-family: &quot;Helvetica Neue&quot;, sans-serif; font-size: 12px; font-weight: 200;" fill="rgb(50, 49, 63)" stroke="none" stroke-width="1px">80</text><text x="289.288" y="0" dx="0em" dy="0.95em" style="text-anchor: middle; visibility: inherit; font-family: &quot;Helvetica Neue&quot;, sans-serif; font-size: 12px; font-weight: 200;" fill="rgb(50, 49, 63)" stroke="none" stroke-width="1px">100</text><text x="337.5026666666667" y="0" dx="0em" dy="0.95em" style="text-anchor: middle; visibility: inherit; font-family: &quot;Helvetica Neue&quot;, sans-serif; font-size: 12px; font-weight: 200;" fill="rgb(50, 49, 63)" stroke="none" stroke-width="1px">120</text><text x="385.71733333333333" y="0" dx="0em" dy="0.95em" style="text-anchor: middle; visibility: inherit; font-family: &quot;Helvetica Neue&quot;, sans-serif; font-size: 12px; font-weight: 200;" fill="rgb(50, 49, 63)" stroke="none" stroke-width="1px">140</text><text x="433.932" y="0" dx="0em" dy="0.95em" style="text-anchor: middle; visibility: inherit; font-family: &quot;Helvetica Neue&quot;, sans-serif; font-size: 12px; font-weight: 200;" fill="rgb(50, 49, 63)" stroke="none" stroke-width="1px">160</text><text x="482.1466666666667" y="0" dx="0em" dy="0.95em" style="text-anchor: middle; visibility: inherit; font-family: &quot;Helvetica Neue&quot;, sans-serif; font-size: 12px; font-weight: 200;" fill="rgb(50, 49, 63)" stroke="none" stroke-width="1px">180</text><text x="530.3613333333333" y="0" dx="0em" dy="0.95em" style="text-anchor: middle; visibility: inherit; font-family: &quot;Helvetica Neue&quot;, sans-serif; font-size: 12px; font-weight: 200;" fill="rgb(50, 49, 63)" stroke="none" stroke-width="1px">200</text><text x="578.576" y="0" dx="0em" dy="0.95em" style="text-anchor: middle; visibility: hidden; font-family: &quot;Helvetica Neue&quot;, sans-serif; font-size: 12px; font-weight: 200;" fill="rgb(50, 49, 63)" stroke="none" stroke-width="1px">220</text></g><line x1="0" y1="0" x2="578.576" y2="0" fill="rgb(0, 0, 0)" stroke="rgb(204, 204, 204)" stroke-width="1px"></line></g></g></g></g></svg>