<svg viewBox="0 0 638.576416015625 400.0000305175781" xmlns="http://www.w3.org/2000/svg"><g><g><g><g><g><line x1="60" y1="378" x2="55" y2="378" style="visibility: inherit;" fill="rgb(0, 0, 0)" stroke="rgb(204, 204, 204)" stroke-width="1px"></line><line x1="60" y1="348.9230769230769" x2="55" y2="348.9230769230769" style="visibility: inherit;" fill="rgb(0, 0, 0)" stroke="rgb(204, 204, 204)" stroke-width="1px"></line><line x1="60" y1="319.8461538461538" x2="55" y2="319.8461538461538" style="visibility: inherit;" fill="rgb(0, 0, 0)" stroke="rgb(204, 204, 204)" stroke-width="1px"></line><line x1="60" y1="290.7692307692307" x2="55" y2="290.7692307692307" style="visibility: inherit;" fill="rgb(0, 0, 0)" stroke="rgb(204, 204, 204)" stroke-width="1px"></line><line x1="60" y1="261.6923076923076" x2="55" y2="261.6923076923076" style="visibility: inherit;" fill="rgb(0, 0, 0)" stroke="rgb(204, 204, 204)" stroke-width="1px"></line><line x1="60" y1="232.61538461538456" x2="55" y2="232.61538461538456" style="visibility: inherit;" fill="rgb(0, 0, 0)" stroke="rgb(204, 204, 204)" stroke-width="1px"></line><line x1="60" y1="203.53846153846166" x2="55" y2="203.53846153846166" style="visibility: inherit;" fill="rgb(0, 0, 0)" stroke="rgb(204, 204, 204)" stroke-width="1px"></line><line x1="60" y1="174.46153846153857" x2="55" y2="174.46153846153857" style="visibility: inherit;" fill="rgb(0, 0, 0)" stroke="rgb(204, 204, 204)" stroke-width="1px"></line><line x1="60" y1="145.38461538461544" x2="55" y2="145.38461538461544" style="visibility: inherit;" fill="rgb(0, 0, 0)" stroke="rgb(204, 204, 204)" stroke-width="1px"></line><line x1="60" y1="116.30769230769238" x2="55" y2="116.30769230769238" style="visibility: inherit;" fill="rgb(0, 0, 0)" stroke="rgb(204, 204, 204)" stroke-width="1px"></line><line x1="60" y1="87.23076923076928" x2="55" y2="87.23076923076928" style="visibility: inherit;" fill="rgb(0, 0, 0)" stroke="rgb(204, 204, 204)" stroke-width="1px"></line><line x1="60" y1="58.15384615384619" x2="55" y2="58.15384615384619" style="visibility: inherit;" fill="rgb(0, 0, 0)" stroke="rgb(204, 204, 204)" stroke-width="1px"></line><line x1="60" y1="29.076923076923094" x2="55" y2="29.076923076923094" style="visibility: inherit;" fill="rgb(0, 0, 0)" stroke="rgb(204, 204, 204)" stroke-width="1px"></line><line x1="60" y1="0" x2="55" y2="0" style="visibility: inherit;" fill="rgb(0, 0, 0)" stroke="rgb(204, 204, 204)" stroke-width="1px"></line></g><g transform="translate(50, 0)"><text x="0" y="378" dx="0em" dy="0.3em" style="text-anchor: end; visibility: hidden; font-family: &quot;Helvetica Neue&quot;, sans-serif; font-size: 12px; font-weight: 200;" fill="rgb(50, 49, 63)" stroke="none" stroke-width="1px">0.09</text><text x="0" y="348.9230769230769" dx="0em" dy="0.3em" style="text-anchor: end; visibility: inherit; font-family: &quot;Helvetica Neue&quot;, sans-serif; font-size: 12px; font-weight: 200;" fill="rgb(50, 49, 63)" stroke="none" stroke-width="1px">0.092</text><text x="0" y="319.8461538461538" dx="0em" dy="0.3em" style="text-anchor: end; visibility: inherit; font-family: &quot;Helvetica Neue&quot;, sans-serif; font-size: 12px; font-weight: 200;" fill="rgb(50, 49, 63)" stroke="none" stroke-width="1px">0.094</text><text x="0" y="290.7692307692307" dx="0em" dy="0.3em" style="text-anchor: end; visibility: inherit; font-family: &quot;Helvetica Neue&quot;, sans-serif; font-size: 12px; font-weight: 200;" fill="rgb(50, 49, 63)" stroke="none" stroke-width="1px">0.096</text><text x="0" y="261.6923076923076" dx="0em" dy="0.3em" style="text-anchor: end; visibility: inherit; font-family: &quot;Helvetica Neue&quot;, sans-serif; font-size: 12px; font-weight: 200;" fill="rgb(50, 49, 63)" stroke="none" stroke-width="1px">0.098</text><text x="0" y="232.61538461538456" dx="0em" dy="0.3em" style="text-anchor: end; visibility: inherit; font-family: &quot;Helvetica Neue&quot;, sans-serif; font-size: 12px; font-weight: 200;" fill="rgb(50, 49, 63)" stroke="none" stroke-width="1px">0.1</text><text x="0" y="203.53846153846166" dx="0em" dy="0.3em" style="text-anchor: end; visibility: inherit; font-family: &quot;Helvetica Neue&quot;, sans-serif; font-size: 12px; font-weight: 200;" fill="rgb(50, 49, 63)" stroke="none" stroke-width="1px">0.102</text><text x="0" y="174.46153846153857" dx="0em" dy="0.3em" style="text-anchor: end; visibility: inherit; font-family: &quot;Helvetica Neue&quot;, sans-serif; font-size: 12px; font-weight: 200;" fill="rgb(50, 49, 63)" stroke="none" stroke-width="1px">0.104</text><text x="0" y="145.38461538461544" dx="0em" dy="0.3em" style="text-anchor: end; visibility: inherit; font-family: &quot;Helvetica Neue&quot;, sans-serif; font-size: 12px; font-weight: 200;" fill="rgb(50, 49, 63)" stroke="none" stroke-width="1px">0.106</text><text x="0" y="116.30769230769238" dx="0em" dy="0.3em" style="text-anchor: end; visibility: inherit; font-family: &quot;Helvetica Neue&quot;, sans-serif; font-size: 12px; font-weight: 200;" fill="rgb(50, 49, 63)" stroke="none" stroke-width="1px">0.108</text><text x="0" y="87.23076923076928" dx="0em" dy="0.3em" style="text-anchor: end; visibility: inherit; font-family: &quot;Helvetica Neue&quot;, sans-serif; font-size: 12px; font-weight: 200;" fill="rgb(50, 49, 63)" stroke="none" stroke-width="1px">0.11</text><text x="0" y="58.15384615384619" dx="0em" dy="0.3em" style="text-anchor: end; visibility: inherit; font-family: &quot;Helvetica Neue&quot;, sans-serif; font-size: 12px; font-weight: 200;" fill="rgb(50, 49, 63)" stroke="none" stroke-width="1px">0.112</text><text x="0" y="29.076923076923094" dx="0em" dy="0.3em" style="text-anchor: end; visibility: inherit; font-family: &quot;Helvetica Neue&quot;, sans-serif; font-size: 12px; font-weight: 200;" fill="rgb(50, 49, 63)" stroke="none" stroke-width="1px">0.114</text><text x="0" y="0" dx="0em" dy="0.3em" style="text-anchor: end; visibility: hidden; font-family: &quot;Helvetica Neue&quot;, sans-serif; font-size: 12px; font-weight: 200;" fill="rgb(50, 49, 63)" stroke="none" stroke-width="1px">0.116</text></g><line x1="60" y1="0" x2="60" y2="378" fill="rgb(0, 0, 0)" stroke="rgb(204, 204, 204)" stroke-width="1px"></line></g></g><g transform="translate(60, 0)" clip-path="url(#clip_0)"><clipPath id="clip_0"><rect width="578" height="377"></rect></clipPath><g><g><g><line x1="0" y1="0" x2="0" y2="378" fill="rgb(0, 0, 0)" stroke="rgb(60, 60, 60)" stroke-width="1px" opacity="0.25"></line><line x1="48.214666666666666" y1="0" x2="48.214666666666666" y2="378" fill="rgb(0, 0, 0)" stroke="rgb(60, 60, 60)" stroke-width="1px" opacity="0.25"></line><line x1="96.42933333333333" y1="0" x2="96.42933333333333" y2="378" fill="rgb(0, 0, 0)" stroke="rgb(60, 60, 60)" stroke-width="1px" opacity="0.25"></line><line x1="144.644" y1="0" x2="144.644" y2="378" fill="rgb(0, 0, 0)" stroke="rgb(60, 60, 60)" stroke-width="1px" opacity="0.25"></line><line x1="192.85866666666666" y1="0" x2="192.85866666666666" y2="378" fill="rgb(0, 0, 0)" stroke="rgb(60, 60, 60)" stroke-width="1px" opacity="0.25"></line><line x1="241.07333333333335" y1="0" x2="241.07333333333335" y2="378" fill="rgb(0, 0, 0)" stroke="rgb(60, 60, 60)" stroke-width="1px" opacity="0.25"></line><line x1="289.288" y1="0" x2="289.288" y2="378" fill="rgb(0, 0, 0)" stroke="rgb(60, 60, 60)" stroke-width="1px" opacity="0.25"></line><line x1="337.5026666666667" y1="0" x2="337.5026666666667" y2="378" fill="rgb(0, 0, 0)" stroke="rgb(60, 60, 60)" stroke-width="1px" opacity="0.25"></line><line x1="385.71733333333333" y1="0" x2="385.71733333333333" y2="378" fill="rgb(0, 0, 0)" stroke="rgb(60, 60, 60)" stroke-width="1px" opacity="0.25"></line><line x1="433.932" y1="0" x2="433.932" y2="378" fill="rgb(0, 0, 0)" stroke="rgb(60, 60, 60)" stroke-width="1px" opacity="0.25"></line><line x1="482.1466666666667" y1="0" x2="482.1466666666667" y2="378" fill="rgb(0, 0, 0)" stroke="rgb(60, 60, 60)" stroke-width="1px" opacity="0.25"></line><line x1="530.3613333333333" y1="0" x2="530.3613333333333" y2="378" fill="rgb(0, 0, 0)" stroke="rgb(60, 60, 60)" stroke-width="1px" opacity="0.25"></line><line x1="578.576" y1="0" x2="578.576" y2="378" fill="rgb(0, 0, 0)" stroke="rgb(60, 60, 60)" stroke-width="1px" opacity="0.25"></line></g><g><line x1="0" y1="378" x2="578.576" y2="378" fill="rgb(0, 0, 0)" stroke="rgb(60, 60, 60)" stroke-width="1px" opacity="0.25"></line><line x1="0" y1="348.9230769230769" x2="578.576" y2="348.9230769230769" fill="rgb(0, 0, 0)" stroke="rgb(60, 60, 60)" stroke-width="1px" opacity="0.25"></line><line x1="0" y1="319.8461538461538" x2="578.576" y2="319.8461538461538" fill="rgb(0, 0, 0)" stroke="rgb(60, 60, 60)" stroke-width="1px" opacity="0.25"></line><line x1="0" y1="290.7692307692307" x2="578.576" y2="290.7692307692307" fill="rgb(0, 0, 0)" stroke="rgb(60, 60, 60)" stroke-width="1px" opacity="0.25"></line><line x1="0" y1="261.6923076923076" x2="578.576" y2="261.6923076923076" fill="rgb(0, 0, 0)" stroke="rgb(60, 60, 60)" stroke-width="1px" opacity="0.25"></line><line x1="0" y1="232.61538461538456" x2="578.576" y2="232.61538461538456" fill="rgb(0, 0, 0)" stroke="rgb(60, 60, 60)" stroke-width="1px" opacity="0.25"></line><line x1="0" y1="203.53846153846166" x2="578.576" y2="203.53846153846166" fill="rgb(0, 0, 0)" stroke="rgb(60, 60, 60)" stroke-width="1px" opacity="0.25"></line><line x1="0" y1="174.46153846153857" x2="578.576" y2="174.46153846153857" fill="rgb(0, 0, 0)" stroke="rgb(60, 60, 60)" stroke-width="1px" opacity="0.25"></line><line x1="0" y1="145.38461538461544" x2="578.576" y2="145.38461538461544" fill="rgb(0, 0, 0)" stroke="rgb(60, 60, 60)" stroke-width="1px" opacity="0.25"></line><line x1="0" y1="116.30769230769238" x2="578.576" y2="116.30769230769238" fill="rgb(0, 0, 0)" stroke="rgb(60, 60, 60)" stroke-width="1px" opacity="0.25"></line><line x1="0" y1="87.23076923076928" x2="578.576" y2="87.23076923076928" fill="rgb(0, 0, 0)" stroke="rgb(60, 60, 60)" stroke-width="1px" opacity="0.25"></line><line x1="0" y1="58.15384615384619" x2="578.576" y2="58.15384615384619" fill="rgb(0, 0, 0)" stroke="rgb(60, 60, 60)" stroke-width="1px" opacity="0.25"></line><line x1="0" y1="29.076923076923094" x2="578.576" y2="29.076923076923094" fill="rgb(0, 0, 0)" stroke="rgb(60, 60, 60)" stroke-width="1px" opacity="0.25"></line><line x1="0" y1="0" x2="578.576" y2="0" fill="rgb(0, 0, 0)" stroke="rgb(60, 60, 60)" stroke-width="1px" opacity="0.25"></line></g></g></g><g><g><line x1="0" y1="1686.461538461538" x2="578.576" y2="1686.461538461538" fill="rgb(0, 0, 0)" stroke="rgb(153, 153, 153)" stroke-width="1.5px"></line></g></g><g><g><line x1="48.214666666666666" y1="0" x2="48.214666666666666" y2="378" fill="rgb(0, 0, 0)" stroke="rgb(153, 153, 153)" stroke-width="1.5px"></line></g></g><g><g><g><g><g><path stroke="rgb(255, 112, 67)" stroke-width="2px" d="M62.67906666666667,-1.4390916296495107L65.08980000000001,17.979106189367712L67.50053333333334,36.13964326486189L69.91126666666668,52.77421444477483L72.322,67.96821601446294L74.73273333333334,81.32950498936185L77.14346666666667,93.74740823443216L79.55420000000001,104.76174256745617L81.96493333333333,115.15675886568062L84.37566666666667,124.5335856777713L86.7864,133.2722384223222L89.19713333333334,140.98143975318806L91.60786666666667,148.23303236608282L94.0186,154.7759650150055L96.42933333333333,160.7622526662908L98.84006666666667,166.67258255300544L101.2508,172.25607228821332L103.66153333333334,177.4922576560082L106.07226666666666,182.43024998767146L108.483,187.07186896303136L110.89373333333334,191.34173040691448L113.30446666666667,195.77745128750072L115.71520000000001,199.67676325375606L118.12593333333334,203.83785869108257L120.53666666666668,207.17451525277767L122.9474,210.50862811980315L125.35813333333334,213.52106429450856L127.76886666666667,217.03335244864283L130.17960000000002,220.01257114228497L132.59033333333332,223.1687902721178L135.00106666666667,226.08891853278791L137.4118,228.83134338939485L139.82253333333335,231.3996411957997L142.23326666666665,234.16229593381522L144.644,236.60763499342735L147.05473333333333,239.01899869725068L149.46546666666669,241.3571170379458L151.8762,243.66303004674586L154.28693333333334,245.78605668754022L156.69766666666666,248.1024741381195L159.10840000000002,250.26000996674406L161.51913333333334,252.1039737276294L163.92986666666667,254.00347087366004L166.3406,256.0563065880125L168.75133333333335,257.7630127904893L171.16206666666668,259.55797146969667L173.5728,260.99036619378177L175.98353333333333,262.34426207041406L178.39426666666668,263.96159035565586L180.805,265.19468494095634L183.21573333333333,266.5274852596329L185.6264666666667,267.8571101182877L188.0372,269.01494064516464L190.44793333333334,270.2691766471251L192.85866666666666,271.53905447014296L195.26940000000002,272.6747284210397L197.68013333333334,273.81731593607367L200.09086666666667,274.9704208043815L202.5016,275.924938011531L204.91233333333335,276.8465686536171L207.32306666666668,278.03703178191387L209.7338,278.9044741098305L212.14453333333333,279.9249445317105L214.55526666666668,280.96998676672763L216.966,281.610920393099L219.37673333333333,282.52005256539064L221.7874666666667,283.271903093609L224.1982,284.0309021201221L226.60893333333334,284.9049365925988L229.01966666666667,285.8390667663473L231.43040000000002,286.36813207655666L233.84113333333335,287.0381311317883L236.25186666666667,287.7811218602282L238.6626,288.53831457420813L241.07333333333335,289.07036061984763L243.48406666666668,289.81112627924955L245.8948,290.4329271452422L248.30553333333333,290.9235131785426L250.71626666666668,291.4241493673828L253.127,291.7636129292718L255.53773333333334,292.3038195785528L257.9484666666667,293.0595336942324L260.35920000000004,293.4062019918964L262.7699333333333,294.21498890450323L265.18066666666664,294.63847533579025L267.5914,295.2905347990528L270.00213333333335,295.3604067619854L272.4128666666667,295.8745183941528L274.8236,296.5110215992123L277.2343333333334,296.8836080040155L279.6450666666667,297.56102056078294L282.0558,297.66105253698197L284.4665333333333,298.3110689867566L286.8772666666667,298.8350056792101L289.288,299.27098936760615L291.69873333333334,299.7172434816061L294.10946666666666,299.97529047984733L296.5202,300.11005781859836L298.93093333333337,300.2353727414144L301.3416666666667,300.8814513147845L303.7524,301.35315476285797L306.16313333333335,301.88171656111376L308.5738666666667,302.1838621549117L310.9846,302.3911896342496L313.3953333333333,302.646263345058L315.80606666666665,303.1768676919055L318.21680000000003,303.48205859051325L320.62753333333336,303.5543834546987L323.0382666666667,303.87685396825907L325.449,304.139011143365L327.85973333333334,304.1523265317466L330.27046666666666,304.3886109534593L332.6812,304.72535756949276L335.0919333333334,305.53516727979724L337.5026666666667,305.9666764762975L339.9134,306.10352704135585L342.32413333333335,306.32511018592766L344.7348666666667,306.7113988406027L347.1456,306.7218526514004L349.5563333333333,307.0533881721643L351.96706666666665,307.20529861354225L354.37780000000004,307.42027627887353L356.78853333333336,307.8643007062979L359.1992666666667,307.9376891593767L361.61,308.1766115382462L364.02073333333334,308.24687064343664L366.43146666666667,308.6812310881347L368.8422,308.896829571495L371.2529333333334,309.28962285152784L373.6636666666667,309.627596208138L376.0744,309.7944613169191L378.48513333333335,310.05606380754824L380.8958666666667,310.104098730593L383.3066,310.53175384874623L385.71733333333333,310.69207212190497L388.12806666666665,310.7147354837511L390.53880000000004,310.9740032142462L392.94953333333336,311.05590626651883L395.3602666666667,311.3444785804533L397.771,311.57485824595403L400.18173333333334,311.7520379098639L402.59246666666667,311.9423586842694L405.0032,312.0141763729526L407.4139333333334,312.1997294231321L409.8246666666667,312.5846341933326L412.2354,312.9724677136847L414.64613333333335,313.24294983472737L417.0568666666667,313.4139480337007L419.4676,313.36819190923296L421.87833333333333,313.42210820311357L424.28906666666666,313.8034216252302L426.69980000000004,313.6178207651256L429.11053333333336,313.88419368139233L431.5212666666667,314.04627048672495L433.932,314.33480965362884L436.34273333333334,314.7393912858549L438.75346666666667,314.6282372283394L441.1642,314.7011475833422L443.5749333333334,314.8883961051161L445.9856666666667,315.09364043255454L448.3964,315.207688150744L450.80713333333335,315.40228789371804L453.2178666666667,315.6383297008704L455.6286,315.52202325010103L458.03933333333333,315.69197315815285L460.45006666666666,316.1464596440984L462.86080000000004,316.35532940377504L465.27153333333337,316.25824867777936L467.6822666666667,316.47838258936224L470.093,316.4507992866061L472.50373333333334,316.6960803592731L474.91446666666667,316.87799805227996L477.3252,317.1132764521531L479.7359333333334,317.2712547528873L482.1466666666667,317.2326781746317L484.55740000000003,317.3670294777952L486.96813333333336,317.4964709064284L489.3788666666667,317.8019543443826L491.7896,317.6952934861696L494.20033333333333,317.98779968759965L496.61106666666666,318.1376532373245L499.02180000000004,318.2031283797961L501.43253333333337,318.2821019057487L503.8432666666667,318.4923559424175L506.254,318.82037347811735L508.66473333333334,318.77493719750083L511.07546666666667,319.0116728830404L513.4861999999999,319.3386381632771L515.8969333333334,319.350933334309L518.3076666666667,319.6052799900687L520.7184000000001,319.4436733871428L523.1291333333334,319.8583696803059L525.5398666666666,319.8468728815954L527.9506,320.01571313702476" style="fill: none;" fill="none"></path></g></g></g></g><g opacity="0.2"><g><g><g><path stroke="rgb(255, 112, 67)" stroke-width="2px" d="M57.857600000000005,-12.683896106022985L60.26833333333334,9.341238594972253L62.67906666666667,28.208845895070397L65.08980000000001,46.291025024194084L67.50053333333334,62.922907948494014L69.91126666666668,77.4746139874826L72.322,90.62140989303595L74.73273333333334,101.29872690714325L77.14346666666667,112.33371649338653L79.55420000000001,121.2616658394154L81.96493333333333,130.7370643615723L84.37566666666667,138.59221263115225L86.7864,146.3765196341735L89.19713333333334,152.54328438410397L91.60786666666667,159.10931657827823L94.0186,164.58976593842877L96.42933333333333,169.74135584097644L98.84006666666667,175.53788290115506L101.2508,180.63119665475995L103.66153333333334,185.34647368009274L106.07226666666666,189.83720338803073L108.483,194.0342776316863L110.89373333333334,197.7465116473345L113.30446666666667,202.43102579850418L115.71520000000001,205.52572761132168L118.12593333333334,210.07949954729813L120.53666666666668,212.17949898884848L122.9474,215.50979675696448L125.35813333333334,218.03971819694226L127.76886666666667,222.3017844282664L130.17960000000002,224.4813990547107L132.59033333333332,227.90311888548047L135.00106666666667,230.4691108786143L137.4118,232.94498064884775L139.82253333333335,235.25208789110184L142.23326666666665,238.30627803160593L144.644,240.27564357794247L147.05473333333333,242.6360442500848L149.46546666666669,244.86429454730109L151.8762,247.12189955894763L154.28693333333334,248.97059664817957L156.69766666666666,251.5771003136268L159.10840000000002,253.4963137094791L161.51913333333334,254.86991936885394L163.92986666666667,256.85271659264197L166.3406,259.13556015949985L168.75133333333335,260.32307209418366L171.16206666666668,262.2504094884946L173.5728,263.13895827990314L175.98353333333333,264.37510588535895L178.39426666666668,266.38758278351565L180.805,267.04432681890637L183.21573333333333,268.5266857376465L185.6264666666667,269.85154740626996L188.0372,270.75168643547937L190.44793333333334,272.1505306500655L192.85866666666666,273.4438712046696L195.26940000000002,274.3782393473845L197.68013333333334,275.5311972086246L200.09086666666667,276.70007810684353L202.5016,277.35671382225473L204.91233333333335,278.22901461674616L207.32306666666668,279.8227264743585L209.7338,280.2056376017057L212.14453333333333,281.4556501645308L214.55526666666668,282.5375501192533L216.966,282.572320832656L219.37673333333333,283.8837508238279L221.7874666666667,284.39967888593674L224.1982,285.16940065989127L226.60893333333334,286.2159883013138L229.01966666666667,287.2402620269702L231.43040000000002,287.16173004187067L233.84113333333335,288.0431297146357L236.25186666666667,288.89560795288816L238.6626,289.674103645178L241.07333333333335,289.86842968830695L243.48406666666668,290.9222747683525L245.8948,291.36562844423145L248.30553333333333,291.6593922284933L250.71626666666668,292.1751036506433L253.127,292.27280827210495L255.53773333333334,293.11412955247437L257.9484666666667,294.19310486775174L260.35920000000004,293.9262044383929L262.7699333333333,295.4281692734131L265.18066666666664,295.27370498272086L267.5914,296.26862399394696L270.00213333333335,295.4652147063842L272.4128666666667,296.64568584240396L274.8236,297.46577640680164L277.2343333333334,297.44248761122043L279.6450666666667,298.57713939593384L282.0558,297.8111005012805L284.4665333333333,299.2860936614183L286.8772666666667,299.6209107178908L289.288,299.92496490020017L291.69873333333334,300.38662465260575L294.10946666666666,300.3623609772095L296.5202,300.3122088267253L298.93093333333337,300.4233451256385L301.3416666666667,301.85056917483985L303.7524,302.0607099349682L306.16313333333335,302.67455925849765L308.5738666666667,302.6370805456088L310.9846,302.7021808532568L313.3953333333333,303.0288739112707L315.80606666666665,303.97277421217694L318.21680000000003,303.9398449384249L320.62753333333336,303.6628707509774L323.0382666666667,304.3605597385993L325.449,304.5322469060237L327.85973333333334,304.1722996143194L330.27046666666666,304.7430375860287L332.6812,305.2304774935429L335.0919333333334,306.74988184525415L337.5026666666667,306.61394027104745L339.9134,306.30880288894355L342.32413333333335,306.6574849027853L344.7348666666667,307.29083182261536L347.1456,306.7375333675971L349.5563333333333,307.55069145331015L351.96706666666665,307.4331642756095L354.37780000000004,307.7427427768707L356.78853333333336,308.53033734743406L359.1992666666667,308.0477718389951L361.61,308.53499510655035L364.02073333333334,308.35225930122226L366.43146666666667,309.3327717551818L368.8422,309.22022729653577L371.2529333333334,309.8788127715771L373.6636666666667,310.1345562430528L376.0744,310.04475898009076L378.48513333333335,310.4484675434919L380.8958666666667,310.1761511151607L383.3066,311.1732365259757L385.71733333333333,310.9325495316432L388.12806666666665,310.7487305265206L390.53880000000004,311.36290480998844L392.94953333333336,311.1787608449275L395.3602666666667,311.7773370513549L397.771,311.92042774420514L400.18173333333334,312.01780740572855L402.59246666666667,312.2278398458774L405.0032,312.12190290597766L407.4139333333334,312.4780589984013L409.8246666666667,313.16199134863336L412.2354,313.5542179942131L414.64613333333335,313.64867301629135L417.0568666666667,313.67044533216034L419.4676,313.2995577225318L421.87833333333333,313.5029826439344L424.28906666666666,314.3753917584052L426.69980000000004,313.3394194749685L429.11053333333336,314.28375305579254L431.5212666666667,314.2893856947238L433.932,314.7676184039849L436.34273333333334,315.34626373419394L438.75346666666667,314.46150614206607L441.1642,314.81051311584616L443.5749333333334,315.1692688877766L445.9856666666667,315.4015069237122L448.3964,315.3787597280282L450.80713333333335,315.69418750817954L453.2178666666667,315.99239241159876L455.6286,315.3475635739473L458.03933333333333,315.9468980202308L460.45006666666666,316.82818937301636L462.86080000000004,316.66863404329L465.27153333333337,316.1126275887856L467.6822666666667,316.8085834567363L470.093,316.409424332472L472.50373333333334,317.0640019682737L474.91446666666667,317.1508745917907L477.3252,317.4661940519626L479.7359333333334,317.5082222039883L482.1466666666667,317.1748133072486L484.55740000000003,317.56855643254056L486.96813333333336,317.690633049378L489.3788666666667,318.2601795013134L491.7896,317.53530219885016L494.20033333333333,318.4265589897449L496.61106666666666,318.3624335619119L499.02180000000004,318.3013410935035L501.43253333333337,318.4005621946775L503.8432666666667,318.80773699742093L506.254,319.31239978166724L508.66473333333334,318.7067827765758L511.07546666666667,319.3667764113499L513.4861999999999,319.8290860836322L515.8969333333334,319.3693760908567L518.3076666666667,319.9867999737079L520.7184000000001,319.20126348275403L523.1291333333334,320.48041412005057L525.5398666666666,319.82962768352945L527.9506,320.26897352016886" style="fill: none;" fill="none"></path></g></g></g></g></g><g><g opacity="0.377855"><span fill="rgb(0, 0, 0)" stroke="none" stroke-width="1px">Alt + Scroll to Zoom</span></g></g></g><g transform="translate(60, 378)" clip-path="url(#clip_1)"><clipPath id="clip_1"><rect width="578" height="21"></rect></clipPath><g><g><line x1="0" y1="0" x2="0" y2="5" style="visibility: inherit;" fill="rgb(0, 0, 0)" stroke="rgb(204, 204, 204)" stroke-width="1px"></line><line x1="48.214666666666666" y1="0" x2="48.214666666666666" y2="5" style="visibility: inherit;" fill="rgb(0, 0, 0)" stroke="rgb(204, 204, 204)" stroke-width="1px"></line><line x1="96.42933333333333" y1="0" x2="96.42933333333333" y2="5" style="visibility: inherit;" fill="rgb(0, 0, 0)" stroke="rgb(204, 204, 204)" stroke-width="1px"></line><line x1="144.644" y1="0" x2="144.644" y2="5" style="visibility: inherit;" fill="rgb(0, 0, 0)" stroke="rgb(204, 204, 204)" stroke-width="1px"></line><line x1="192.85866666666666" y1="0" x2="192.85866666666666" y2="5" style="visibility: inherit;" fill="rgb(0, 0, 0)" stroke="rgb(204, 204, 204)" stroke-width="1px"></line><line x1="241.07333333333335" y1="0" x2="241.07333333333335" y2="5" style="visibility: inherit;" fill="rgb(0, 0, 0)" stroke="rgb(204, 204, 204)" stroke-width="1px"></line><line x1="289.288" y1="0" x2="289.288" y2="5" style="visibility: inherit;" fill="rgb(0, 0, 0)" stroke="rgb(204, 204, 204)" stroke-width="1px"></line><line x1="337.5026666666667" y1="0" x2="337.5026666666667" y2="5" style="visibility: inherit;" fill="rgb(0, 0, 0)" stroke="rgb(204, 204, 204)" stroke-width="1px"></line><line x1="385.71733333333333" y1="0" x2="385.71733333333333" y2="5" style="visibility: inherit;" fill="rgb(0, 0, 0)" stroke="rgb(204, 204, 204)" stroke-width="1px"></line><line x1="433.932" y1="0" x2="433.932" y2="5" style="visibility: inherit;" fill="rgb(0, 0, 0)" stroke="rgb(204, 204, 204)" stroke-width="1px"></line><line x1="482.1466666666667" y1="0" x2="482.1466666666667" y2="5" style="visibility: inherit;" fill="rgb(0, 0, 0)" stroke="rgb(204, 204, 204)" stroke-width="1px"></line><line x1="530.3613333333333" y1="0" x2="530.3613333333333" y2="5" style="visibility: inherit;" fill="rgb(0, 0, 0)" stroke="rgb(204, 204, 204)" stroke-width="1px"></line><line x1="578.576" y1="0" x2="578.576" y2="5" style="visibility: inherit;" fill="rgb(0, 0, 0)" stroke="rgb(204, 204, 204)" stroke-width="1px"></line></g><g transform="translate(0, 8)"><text x="0" y="0" dx="0em" dy="0.95em" style="text-anchor: middle; visibility: hidden; font-family: &quot;Helvetica Neue&quot;, sans-serif; font-size: 12px; font-weight: 200;" fill="rgb(50, 49, 63)" stroke="none" stroke-width="1px">-20</text><text x="48.214666666666666" y="0" dx="0em" dy="0.95em" style="text-anchor: middle; visibility: inherit; font-family: &quot;Helvetica Neue&quot;, sans-serif; font-size: 12px; font-weight: 200;" fill="rgb(50, 49, 63)" stroke="none" stroke-width="1px">0</text><text x="96.42933333333333" y="0" dx="0em" dy="0.95em" style="text-anchor: middle; visibility: inherit; font-family: &quot;Helvetica Neue&quot;, sans-serif; font-size: 12px; font-weight: 200;" fill="rgb(50, 49, 63)" stroke="none" stroke-width="1px">20</text><text x="144.644" y="0" dx="0em" dy="0.95em" style="text-anchor: middle; visibility: inherit; font-family: &quot;Helvetica Neue&quot;, sans-serif; font-size: 12px; font-weight: 200;" fill="rgb(50, 49, 63)" stroke="none" stroke-width="1px">40</text><text x="192.85866666666666" y="0" dx="0em" dy="0.95em" style="text-anchor: middle; visibility: inherit; font-family: &quot;Helvetica Neue&quot;, sans-serif; font-size: 12px; font-weight: 200;" fill="rgb(50, 49, 63)" stroke="none" stroke-width="1px">60</text><text x="241.07333333333335" y="0" dx="0em" dy="0.95em" style="text-anchor: middle; visibility: inherit; font-family: &quot;Helvetica Neue&quot;, sans-serif; font-size: 12px; font-weight: 200;" fill="rgb(50, 49, 63)" stroke="none" stroke-width="1px">80</text><text x="289.288" y="0" dx="0em" dy="0.95em" style="text-anchor: middle; visibility: inherit; font-family: &quot;Helvetica Neue&quot;, sans-serif; font-size: 12px; font-weight: 200;" fill="rgb(50, 49, 63)" stroke="none" stroke-width="1px">100</text><text x="337.5026666666667" y="0" dx="0em" dy="0.95em" style="text-anchor: middle; visibility: inherit; font-family: &quot;Helvetica Neue&quot;, sans-serif; font-size: 12px; font-weight: 200;" fill="rgb(50, 49, 63)" stroke="none" stroke-width="1px">120</text><text x="385.71733333333333" y="0" dx="0em" dy="0.95em" style="text-anchor: middle; visibility: inherit; font-family: &quot;Helvetica Neue&quot;, sans-serif; font-size: 12px; font-weight: 200;" fill="rgb(50, 49, 63)" stroke="none" stroke-width="1px">140</text><text x="433.932" y="0" dx="0em" dy="0.95em" style="text-anchor: middle; visibility: inherit; font-family: &quot;Helvetica Neue&quot;, sans-serif; font-size: 12px; font-weight: 200;" fill="rgb(50, 49, 63)" stroke="none" stroke-width="1px">160</text><text x="482.1466666666667" y="0" dx="0em" dy="0.95em" style="text-anchor: middle; visibility: inherit; font-family: &quot;Helvetica Neue&quot;, sans-serif; font-size: 12px; font-weight: 200;" fill="rgb(50, 49, 63)" stroke="none" stroke-width="1px">180</text><text x="530.3613333333333" y="0" dx="0em" dy="0.95em" style="text-anchor: middle; visibility: inherit; font-family: &quot;Helvetica Neue&quot;, sans-serif; font-size: 12px; font-weight: 200;" fill="rgb(50, 49, 63)" stroke="none" stroke-width="1px">200</text><text x="578.576" y="0" dx="0em" dy="0.95em" style="text-anchor: middle; visibility: hidden; font-family: &quot;Helvetica Neue&quot;, sans-serif; font-size: 12px; font-weight: 200;" fill="rgb(50, 49, 63)" stroke="none" stroke-width="1px">220</text></g><line x1="0" y1="0" x2="578.576" y2="0" fill="rgb(0, 0, 0)" stroke="rgb(204, 204, 204)" stroke-width="1px"></line></g></g></g></g></svg>